<svg width="29" height="29" viewBox="0 0 29 29" fill="none" xmlns="http://www.w3.org/2000/svg">
<path d="M19.2578 3.85156V2.49219C19.2578 2.117 19.5623 1.8125 19.9375 1.8125C20.3127 1.8125 20.6172 2.117 20.6172 2.49219V3.85156C20.6172 4.22675 20.3127 4.53125 19.9375 4.53125C19.5623 4.53125 19.2578 4.22675 19.2578 3.85156Z" fill="white"/>
<path d="M24.6681 3.37113L25.6297 2.4096C25.8952 2.14407 26.3256 2.14407 26.5912 2.4096C26.8567 2.67513 26.8567 3.1056 26.5912 3.37113L25.6287 4.33175C25.3632 4.59729 24.9327 4.59729 24.6672 4.33175C24.4026 4.06713 24.4026 3.63666 24.6681 3.37113Z" fill="white"/>
<path d="M24.4688 9.0625C24.4688 8.68731 24.7732 8.38281 25.1484 8.38281H26.5078C26.883 8.38281 27.1875 8.68731 27.1875 9.0625C27.1875 9.43769 26.883 9.74219 26.5078 9.74219H25.1484C24.7732 9.74219 24.4688 9.43769 24.4688 9.0625Z" fill="white"/>
<path d="M7.25 4.53125C7.25 4.02466 8.84953 3.83797 9.0625 3.625C9.27547 3.41203 9.46216 1.8125 9.96875 1.8125C10.4753 1.8125 10.662 3.41203 10.875 3.625C11.088 3.83797 12.6875 4.02466 12.6875 4.53125C12.6875 5.03784 11.088 5.22453 10.875 5.4375C10.662 5.65047 10.4753 7.25 9.96875 7.25C9.46216 7.25 9.27547 5.65047 9.0625 5.4375C8.84953 5.22453 7.25 5.03784 7.25 4.53125Z" fill="white"/>
<path d="M27.1875 19.0312C27.1875 19.5378 25.588 19.7245 25.375 19.9375C25.162 20.1505 24.9753 21.75 24.4688 21.75C23.9622 21.75 23.7755 20.1505 23.5625 19.9375C23.3495 19.7245 21.75 19.5378 21.75 19.0312C21.75 18.5247 23.3495 18.338 23.5625 18.125C23.7755 17.912 23.9622 16.3125 24.4688 16.3125C24.9753 16.3125 25.162 17.912 25.375 18.125C25.588 18.338 27.1875 18.5247 27.1875 19.0312Z" fill="white"/>
<path d="M14.7791 14.2206L15.2214 15.754C13.011 18.0885 9.95788 21.3148 7.57716 23.8332L5.16653 21.4235C7.685 19.0428 10.9113 15.9887 13.2458 13.7793L14.7791 14.2206Z" fill="white"/>
<path d="M4.17781 22.3579L6.64191 24.822C5.98216 25.5207 5.40034 26.1361 4.94813 26.6164C4.2485 27.3586 3.07219 27.3776 2.34719 26.6526C1.62219 25.9276 1.64122 24.7504 2.38344 24.0517C2.86375 23.5986 3.47909 23.0177 4.17781 22.3579Z" fill="white"/>
<path d="M24.1398 13.6273L20.0254 13.6781L17.5776 17.0801C17.4154 17.3058 17.0647 17.2451 16.9877 16.9777L15.8775 13.1225L12.0223 12.0124C11.7559 11.9354 11.6952 11.5846 11.9199 11.4224L15.322 8.97463L15.3727 4.86026C15.3763 4.58929 15.6845 4.43613 15.902 4.59654L19.1264 6.96638L23.0097 5.56441C23.2743 5.46835 23.5308 5.72482 23.4356 5.99035L22.0337 9.87363L24.4035 13.0981C24.5639 13.3156 24.4107 13.6237 24.1398 13.6273Z" fill="white"/>
</svg>
