<svg width="26" height="26" viewBox="0 0 26 26" fill="none" xmlns="http://www.w3.org/2000/svg">
<g clip-path="url(#clip0_50_668)">
<path d="M25.3389 25.3389C24.4569 26.2204 23.0271 26.2204 22.1451 25.3389L19.147 22.3408C19.147 21.322 19.4296 20.5063 19.9705 19.9654C20.5114 19.4245 21.3836 19.147 22.3408 19.147L25.3389 22.1451C26.2204 23.0271 26.2204 24.4569 25.3389 25.3389Z" fill="white"/>
<path d="M22.3408 19.1471C21.9087 19.7591 21.4205 20.3388 20.8796 20.8797C20.3387 21.4207 19.759 21.9088 19.147 22.3409L16.3717 19.5656L19.5655 16.3718L22.3408 19.1471Z" fill="#010101"/>
<path d="M23.1621 11.5813C23.1621 16.8488 19.645 21.295 14.8311 22.6996C12.0404 23.1531 11.1806 19.4465 13.4793 19.0562L10.7498 3.45744C9.40687 2.8532 8.79597 0.337238 11.5986 0C17.9867 0.00939453 23.1621 5.19061 23.1621 11.5813Z" fill="#CDCDCD"/>
<path d="M14.8311 22.6996C13.8 23.001 12.7097 23.1621 11.5813 23.1621C5.18487 23.1621 0 17.9772 0 11.5813C0 5.18487 5.18487 0 11.5813 0H11.5986C9.97684 0.676965 10.2829 2.81135 11.6258 3.4156L13.88 19.3562C12.6276 20.1838 12.8515 22.4846 14.8311 22.6996Z" fill="white"/>
<path d="M19.7465 11.5813C19.7465 14.6348 18.0704 17.2971 15.5875 18.6975C14.7159 18.4898 13.8151 18.1482 12.8535 17.9625C6.75731 15.0936 7.8422 5.18683 11.6258 3.41553C16.1149 3.4396 19.7465 7.08589 19.7465 11.5813Z" fill="#010101"/>
<path d="M12.8536 17.9625C12.4414 17.8825 12.0181 17.8312 11.5813 17.8312C10.117 17.8312 9.15291 18.2581 7.55523 18.6866C5.0834 17.283 3.4156 14.627 3.4156 11.5813C3.4156 7.07127 7.07129 3.41553 11.5813 3.41553H11.6258C9.26641 6.09089 7.98103 13.9061 12.8536 17.9625Z" fill="#010101"/>
<path d="M15.587 18.6969C14.4036 19.3649 13.0367 19.7463 11.5813 19.7463C11.0268 19.7463 10.4859 19.6914 9.96323 19.5857C8.79597 17.5316 10.2264 15.462 12.8975 15.3169C14.345 15.8201 15.418 17.1233 15.587 18.6969Z" fill="white"/>
<path d="M12.8975 15.3169C11.3877 15.8683 10.1065 17.411 9.96323 19.5857C9.10371 19.4131 8.2939 19.1055 7.55518 18.6859C7.77806 16.6655 9.4903 15.0935 11.5703 15.0935C12.0354 15.0935 12.4821 15.172 12.8975 15.3169Z" fill="white"/>
<path d="M16.758 12.8659C17.3857 12.8659 17.8946 12.412 17.8946 11.8521C17.8946 11.2922 17.3857 10.8384 16.758 10.8384C16.1303 10.8384 15.6215 11.2922 15.6215 11.8521C15.6215 12.412 16.1303 12.8659 16.758 12.8659Z" fill="white"/>
<path d="M6.40412 12.8659C7.03182 12.8659 7.54066 12.412 7.54066 11.8521C7.54066 11.2922 7.03182 10.8384 6.40412 10.8384C5.77643 10.8384 5.26759 11.2922 5.26759 11.8521C5.26759 12.412 5.77643 12.8659 6.40412 12.8659Z" fill="white"/>
<path d="M16.2744 11.8549C16.2744 13.7335 14.8902 15.3233 12.9823 15.8585C10.003 15.6129 9.00351 13.7335 9.00351 11.8549C9.00351 9.9768 10.4969 8.00075 12.9823 7.85181C14.8902 8.38643 16.2744 9.9768 16.2744 11.8549Z" fill="white"/>
<path d="M12.9823 15.8584C12.5366 15.9829 12.0621 16.0504 11.5703 16.0504C8.97289 16.0504 6.86674 14.1723 6.86674 11.8548C6.86674 9.53778 8.97289 7.65918 11.5703 7.65918C12.0621 7.65918 12.5366 7.72667 12.9823 7.85169C11.0744 8.38637 9.69069 9.97668 9.69069 11.8548C9.69069 13.7333 11.0744 15.3232 12.9823 15.8584Z" fill="white"/>
<path d="M17.5974 10.9342C17.5974 11.0105 17.5959 11.0874 17.5917 11.1633C17.2752 11.1628 16.4696 11.124 16.1892 11.0565C15.7513 9.80519 14.4419 9.16905 13.2387 9.07333C13.2246 9.36105 13.1435 9.67859 12.9912 9.98881C12.8447 10.2881 12.6522 10.5392 12.4424 10.7238C11.0637 10.3775 10.135 6.70057 12.3561 6.06104C15.1099 6.39645 17.5974 8.45029 17.5974 10.9342Z" fill="#D6D6D6"/>
<path d="M12.4424 10.7238C12.0815 11.044 11.6687 11.169 11.347 11.011C10.885 10.7845 10.7689 10.0542 11.0493 9.31288C10.6648 10.0176 9.71582 10.5328 9.26798 10.1546C9.02002 9.96785 8.9473 9.60797 9.03678 9.20776C8.11972 9.47456 7.26385 10.0662 6.95312 11.0566C6.95312 11.0566 6.01615 11.1627 5.57045 11.1633C5.56679 11.0874 5.56471 11.0105 5.56471 10.9342C5.56471 8.2159 8.52358 6.01245 11.5704 6.01245C11.8335 6.01245 12.0961 6.02865 12.3561 6.0611C10.9991 7.35526 11.4882 10.0008 12.4424 10.7238Z" fill="#D6D6D6"/>
<path d="M8.79597 13.0802C8.58558 13.0802 8.41511 12.9097 8.41511 12.6994V12.1665C8.41511 11.9561 8.58558 11.7856 8.79597 11.7856C9.00636 11.7856 9.17683 11.9561 9.17683 12.1665V12.6994C9.17683 12.9097 9.00636 13.0802 8.79597 13.0802Z" fill="#010101"/>
<path d="M14.342 13.0802C14.1317 13.0802 13.9612 12.9097 13.9612 12.6994V12.1665C13.9612 11.9561 14.1317 11.7856 14.342 11.7856C14.5524 11.7856 14.7229 11.9561 14.7229 12.1665V12.6994C14.7229 12.9097 14.5524 13.0802 14.342 13.0802Z" fill="#010101"/>
<path d="M11.569 13.3975C11.1787 13.3975 10.8076 13.2285 10.5508 12.9338C10.4126 12.7752 10.4291 12.5346 10.5878 12.3965C10.7463 12.2583 10.9869 12.2748 11.1251 12.4334C11.2372 12.562 11.399 12.6358 11.569 12.6358C11.739 12.6358 11.9009 12.562 12.0131 12.4334C12.1512 12.2748 12.3918 12.2582 12.5504 12.3965C12.709 12.5347 12.7254 12.7753 12.5872 12.9338C12.3304 13.2285 11.9593 13.3975 11.569 13.3975Z" fill="#010101"/>
</g>
<defs>
<clipPath id="clip0_50_668">
<rect width="26" height="26" fill="white"/>
</clipPath>
</defs>
</svg>
