<svg width="33" height="27" viewBox="0 0 33 27" fill="none" xmlns="http://www.w3.org/2000/svg">
<path d="M27.9359 3.00843C25.8326 2.04337 23.5771 1.33233 21.2189 0.925049C21.1759 0.917185 21.133 0.936844 21.1109 0.976096C20.8208 1.49204 20.4995 2.16506 20.2745 2.69409C17.7381 2.31434 15.2146 2.31434 12.7302 2.69409C12.5051 2.15333 12.1722 1.49204 11.8808 0.976096C11.8587 0.938133 11.8157 0.918474 11.7728 0.925049C9.41588 1.33097 7.16041 2.04202 5.05576 3.00843C5.03752 3.01629 5.02192 3.02938 5.01154 3.04639C0.7334 9.43789 -0.438616 15.6723 0.136306 21.8294C0.138884 21.8595 0.155835 21.8883 0.179232 21.9067C3.00183 23.9795 5.73606 25.2379 8.41943 26.0721C8.46236 26.0852 8.50786 26.0695 8.53519 26.0341C9.16993 25.1673 9.73576 24.2533 10.2209 23.2921C10.2495 23.2358 10.2222 23.169 10.1637 23.1467C9.26615 22.8063 8.41157 22.3912 7.58947 21.9198C7.52444 21.8819 7.51922 21.7888 7.5791 21.7443C7.75209 21.6147 7.92514 21.4798 8.09034 21.3436C8.12024 21.3187 8.16188 21.3135 8.19701 21.3292C13.5977 23.795 19.4445 23.795 24.7814 21.3292C24.8166 21.3122 24.8582 21.3174 24.8894 21.3423C25.0547 21.4784 25.2276 21.6146 25.4019 21.7442C25.4617 21.7888 25.4578 21.8818 25.3928 21.9198C24.5707 22.4003 23.7162 22.8062 22.8174 23.1454C22.7588 23.1676 22.7328 23.2358 22.7615 23.292C23.2571 24.2519 23.8229 25.1659 24.4459 26.0328C24.4719 26.0694 24.5187 26.0852 24.5617 26.072C27.2581 25.2379 29.9923 23.9795 32.8149 21.9066C32.8396 21.8883 32.8552 21.8608 32.8578 21.8307C33.5459 14.7124 31.7053 8.5291 27.9787 3.04768C27.9697 3.02938 27.9541 3.01629 27.9359 3.00843ZM11.0275 18.0803C9.40157 18.0803 8.06178 16.5876 8.06178 14.7543C8.06178 12.9211 9.37553 11.4283 11.0275 11.4283C12.6924 11.4283 14.0193 12.9341 13.9932 14.7543C13.9932 16.5876 12.6794 18.0803 11.0275 18.0803ZM21.9927 18.0803C20.3669 18.0803 19.0271 16.5876 19.0271 14.7543C19.0271 12.9211 20.3408 11.4283 21.9927 11.4283C23.6577 11.4283 24.9845 12.9341 24.9585 14.7543C24.9585 16.5876 23.6578 18.0803 21.9927 18.0803Z" fill="#5865F2"/>
</svg>
