<svg width="26" height="26" viewBox="0 0 26 26" fill="none" xmlns="http://www.w3.org/2000/svg">
<path d="M25.3389 25.3389C24.4569 26.2204 23.0271 26.2204 22.1451 25.3389L19.147 22.3408C19.147 21.322 19.4296 20.5063 19.9705 19.9654C20.5114 19.4245 21.3836 19.147 22.3408 19.147L25.3389 22.1451C26.2204 23.0271 26.2204 24.4569 25.3389 25.3389Z" fill="#414141"/>
<path d="M22.3408 19.1468C21.9087 19.7589 21.4205 20.3386 20.8796 20.8795C20.3387 21.4204 19.759 21.9085 19.147 22.3406L16.3717 19.5654L19.5655 16.3716L22.3408 19.1468Z" fill="#010101"/>
<path d="M23.1621 11.5813C23.1621 16.8488 19.645 21.295 14.8311 22.6996C12.0404 23.1531 11.1806 19.4465 13.4793 19.0562L10.7498 3.45744C9.40687 2.8532 8.79597 0.337238 11.5986 0C17.9867 0.00939453 23.1621 5.19061 23.1621 11.5813Z" fill="#414141"/>
<path d="M14.8311 22.6996C13.8 23.001 12.7097 23.1621 11.5813 23.1621C5.18487 23.1621 0 17.9772 0 11.5813C0 5.18487 5.18487 0 11.5813 0H11.5986C9.97684 0.676965 10.2829 2.81135 11.6258 3.4156L13.88 19.3562C12.6276 20.1838 12.8515 22.4846 14.8311 22.6996Z" fill="#414141"/>
<path d="M19.7465 11.5813C19.7465 14.6348 18.0704 17.2971 15.5875 18.6975C14.7159 18.4898 13.8151 18.1482 12.8535 17.9625C6.75731 15.0936 7.8422 5.18683 11.6258 3.41553C16.1149 3.4396 19.7465 7.08589 19.7465 11.5813Z" fill="#010101"/>
<path d="M12.8536 17.9625C12.4414 17.8825 12.0181 17.8312 11.5813 17.8312C10.117 17.8312 9.15291 18.2581 7.55523 18.6866C5.0834 17.283 3.4156 14.627 3.4156 11.5813C3.4156 7.07127 7.07129 3.41553 11.5813 3.41553H11.6258C9.26641 6.09089 7.98103 13.9061 12.8536 17.9625Z" fill="#010101"/>
<path d="M15.587 18.6974C14.4036 19.3654 13.0367 19.7468 11.5813 19.7468C11.0268 19.7468 10.4859 19.6919 9.96323 19.5862C8.79597 17.5321 10.2264 15.4625 12.8975 15.3174C14.345 15.8206 15.418 17.1238 15.587 18.6974Z" fill="#414141"/>
<path d="M12.8975 15.3171C11.3877 15.8685 10.1065 17.4113 9.96323 19.586C9.10371 19.4133 8.2939 19.1057 7.55518 18.6862C7.77806 16.6658 9.4903 15.0938 11.5703 15.0938C12.0354 15.0938 12.4821 15.1723 12.8975 15.3171Z" fill="#414141"/>
<path d="M16.758 12.8664C17.3857 12.8664 17.8946 12.4125 17.8946 11.8526C17.8946 11.2927 17.3857 10.8389 16.758 10.8389C16.1303 10.8389 15.6215 11.2927 15.6215 11.8526C15.6215 12.4125 16.1303 12.8664 16.758 12.8664Z" fill="#414141"/>
<path d="M6.40412 12.8664C7.03182 12.8664 7.54066 12.4125 7.54066 11.8526C7.54066 11.2927 7.03182 10.8389 6.40412 10.8389C5.77643 10.8389 5.26759 11.2927 5.26759 11.8526C5.26759 12.4125 5.77643 12.8664 6.40412 12.8664Z" fill="#414141"/>
<path d="M16.2744 11.8551C16.2744 13.7337 14.8902 15.3235 12.9823 15.8587C10.003 15.6132 9.00351 13.7337 9.00351 11.8551C9.00351 9.97704 10.4969 8.00099 12.9823 7.85205C14.8902 8.38668 16.2744 9.97704 16.2744 11.8551Z" fill="#414141"/>
<path d="M12.9823 15.8589C12.5366 15.9834 12.0621 16.0509 11.5703 16.0509C8.97289 16.0509 6.86674 14.1728 6.86674 11.8553C6.86674 9.53827 8.97289 7.65967 11.5703 7.65967C12.0621 7.65967 12.5366 7.72716 12.9823 7.85218C11.0744 8.38686 9.69069 9.97717 9.69069 11.8553C9.69069 13.7338 11.0744 15.3237 12.9823 15.8589Z" fill="#414141"/>
<path d="M17.5974 10.9342C17.5974 11.0105 17.5959 11.0874 17.5917 11.1633C17.2752 11.1628 16.4696 11.124 16.1892 11.0565C15.7513 9.80519 14.4419 9.16905 13.2387 9.07333C13.2246 9.36105 13.1435 9.67859 12.9912 9.98881C12.8447 10.2881 12.6522 10.5392 12.4424 10.7238C11.0637 10.3775 10.135 6.70057 12.3561 6.06104C15.1099 6.39645 17.5974 8.45029 17.5974 10.9342Z" fill="#414141"/>
<path d="M12.4424 10.724C12.0815 11.0442 11.6687 11.1692 11.347 11.0112C10.885 10.7847 10.7689 10.0544 11.0493 9.31312C10.6648 10.0178 9.71582 10.5331 9.26798 10.1549C9.02002 9.9681 8.9473 9.60821 9.03678 9.208C8.11972 9.47481 7.26385 10.0665 6.95312 11.0568C6.95312 11.0568 6.01615 11.163 5.57045 11.1635C5.56679 11.0877 5.56471 11.0108 5.56471 10.9344C5.56471 8.21614 8.52358 6.0127 11.5704 6.0127C11.8335 6.0127 12.0961 6.02889 12.3561 6.06134C10.9991 7.3555 11.4882 10.0011 12.4424 10.724Z" fill="#414141"/>
<path d="M8.79597 13.0807C8.58558 13.0807 8.41511 12.9102 8.41511 12.6998V12.167C8.41511 11.9566 8.58558 11.7861 8.79597 11.7861C9.00636 11.7861 9.17683 11.9566 9.17683 12.167V12.6998C9.17683 12.9102 9.00636 13.0807 8.79597 13.0807Z" fill="#010101"/>
<path d="M14.342 13.0807C14.1317 13.0807 13.9612 12.9102 13.9612 12.6998V12.167C13.9612 11.9566 14.1317 11.7861 14.342 11.7861C14.5524 11.7861 14.7229 11.9566 14.7229 12.167V12.6998C14.7229 12.9102 14.5524 13.0807 14.342 13.0807Z" fill="#010101"/>
<path d="M11.569 13.398C11.1787 13.398 10.8076 13.229 10.5508 12.9343C10.4126 12.7757 10.4291 12.5351 10.5878 12.3969C10.7463 12.2588 10.9869 12.2753 11.1251 12.4339C11.2372 12.5625 11.399 12.6363 11.569 12.6363C11.739 12.6363 11.9009 12.5625 12.0131 12.4339C12.1512 12.2753 12.3918 12.2587 12.5504 12.397C12.709 12.5352 12.7254 12.7758 12.5872 12.9343C12.3304 13.229 11.9593 13.398 11.569 13.398Z" fill="#010101"/>
</svg>
